<svg width="1440" height="648" viewBox="0 0 1440 648" fill="none" xmlns="http://www.w3.org/2000/svg">
  <path fill-rule="evenodd" clip-rule="evenodd" d="M328.252 548.158C417.189 529.388 465.668 422.766 436.534 310.013C407.4 197.26 311.684 121.071 222.748 139.842C133.811 158.612 85.3318 265.234 114.466 377.987C143.6 490.74 239.316 566.929 328.252 548.158ZM325.125 514.293C402.8 497.899 445.141 404.779 419.696 306.303C394.251 207.827 310.655 141.286 232.98 157.68C155.305 174.073 112.965 267.194 138.41 365.67C163.855 464.146 247.45 530.687 325.125 514.293Z" fill="url(#paint0_linear_1736_350)"/>
  <path fill-rule="evenodd" clip-rule="evenodd" d="M367.793 586.342C484.957 562.268 548.823 425.518 510.442 280.903C472.061 136.288 345.967 38.5703 228.802 62.6449C111.638 86.7196 47.772 223.47 86.1532 368.085C124.534 512.7 250.629 610.417 367.793 586.342ZM363.674 542.908C466.002 521.881 521.781 402.447 488.26 276.144C454.739 149.841 344.611 64.4971 242.283 85.5233C139.954 106.549 84.1751 225.983 117.696 352.287C151.217 478.59 261.345 563.934 363.674 542.908Z" fill="url(#paint1_linear_1736_350)"/>
  <path d="M394.573 223.335L397.607 219.543C398.239 219.29 399.503 219.088 399.503 220.301C399.503 221.515 399.25 222.577 399.124 222.956L402.157 221.439C402.916 221.313 404.584 221.211 405.191 221.818C405.798 222.425 405.697 223.082 405.57 223.335C405.949 223.335 406.784 223.411 407.087 223.714C407.466 224.093 407.466 224.852 407.466 225.61C407.466 226.217 405.191 227.38 404.053 227.886L408.983 227.127L410.5 227.886C410.5 228.265 409.969 229.175 407.846 229.782C405.722 230.388 404.18 231.298 403.674 231.678C402.537 233.068 399.73 236.532 397.607 239.262C394.952 242.675 391.539 251.397 389.264 255.189C386.989 258.981 380.542 266.944 378.267 269.599C376.447 271.723 374.728 275.54 374.096 277.183L366.511 291.593L368.028 296.523L366.511 302.97L361.582 307.52C362.34 312.956 363.933 324.736 364.236 328.377C364.615 332.927 363.857 348.475 362.719 353.026C361.809 356.666 357.031 364.402 354.756 367.815L352.86 374.262L351.722 378.433L348.309 379.571V382.604L351.722 388.672V393.981L353.239 401.186V406.874L349.826 412.562V423.559C347.93 428.11 343.455 439.107 340.725 446.691C337.995 454.275 337.059 466.537 336.933 471.719H333.52L331.624 478.924C331.497 482.843 331.017 491.818 330.107 496.368C329.197 500.919 325.264 511.208 324 515L315.5 516.5H307.354C307.354 513.34 305.837 502.739 305.837 497.885C305.837 493.031 309.377 480.188 311.146 474.374L308.492 472.857L310.009 465.273L308.492 445.554L307.354 452.379C306.469 455.16 304.7 461.101 304.7 462.618C304.7 464.135 303.183 469.318 302.424 471.719L298.253 474.374C296.483 479.556 292.792 490.756 292.186 494.093C291.579 497.43 287.522 509.944 285.5 515L275 514L266.02 511.5C267.031 506.697 269.281 498.492 270.191 496.368C271.101 494.245 271.329 488.405 271.329 485.75L275.88 470.582L262.607 464.135V457.309L266.02 450.104C267.158 449.346 269.812 446.919 271.329 443.278C273.225 438.728 272.467 432.281 273.604 426.214C274.514 421.36 277.017 418.124 278.155 417.113L282.326 403.082L292.186 376.916L294.461 368.953L299.391 360.61C299.896 359.852 301.059 357.576 301.666 354.543C302.273 351.509 304.194 346.2 305.079 343.925C304.447 342.787 302.879 339.526 301.666 335.582C300.452 331.638 300.655 324.838 300.908 321.93C300.149 321.425 298.101 319.807 295.978 317.38C293.854 314.953 292.565 308.531 292.186 305.624L290.669 296.523L287.635 283.251L284.601 279.838V274.149V264.669C282.958 259.992 279.52 250.335 278.913 249.121C278.306 247.908 276.132 245.077 275.121 243.812L269.054 232.815C266.905 227.38 262.38 215.827 261.469 213.096C260.332 209.683 258.057 207.029 255.402 203.995C253.278 201.568 248.955 197.422 247.059 195.652L243.646 192.998L240.992 189.206L239.854 187.689C239.475 187.183 238.868 186.02 239.475 185.414C240.082 184.807 240.739 184.655 240.992 184.655L239.096 182.001C238.969 181.495 238.868 180.332 239.475 179.726C240.082 179.119 241.245 179.726 241.75 180.105C241.75 179.726 241.902 178.815 242.509 178.209C243.116 177.602 244.026 178.461 244.405 178.967L247.818 183.518C249.461 185.287 253.127 189.13 254.644 190.343C256.16 191.557 258.057 191.86 258.815 191.86L258.057 186.931C258.183 185.919 258.739 183.821 259.953 183.518C261.469 183.138 262.228 183.897 262.986 185.035C263.745 186.172 263.366 190.723 264.503 192.24C265.641 193.756 266.02 196.032 266.399 197.549C266.778 199.065 267.916 204.374 269.054 206.27C270.191 208.166 277.017 219.164 280.43 223.714C283.843 228.265 292.186 242.296 293.323 244.192C294.233 245.709 295.472 248.869 295.978 250.259L299.77 258.223L306.975 271.495V269.599L305.079 266.944C304.194 265.428 302.121 261.711 300.908 258.981C299.391 255.568 299.77 251.776 299.77 248.742C299.77 245.709 302.045 243.433 303.562 240.779C305.079 238.124 310.388 233.574 314.18 232.436C317.972 231.298 322.523 230.919 327.452 230.54C332.382 230.161 337.312 231.298 339.587 231.678C341.407 231.981 344.138 234.585 345.275 235.849L347.171 239.262L349.068 244.95C349.447 246.088 350.205 249.121 350.584 249.501C350.888 249.804 350.711 252.408 350.584 253.672V256.706C351.343 257.464 352.936 259.133 353.239 259.739C353.618 260.498 354.377 262.394 354.377 263.911C354.377 265.428 352.48 271.495 352.86 272.253C353.163 272.86 352.986 275.793 352.86 277.183L357.031 274.149C358.801 272.127 362.719 267.627 364.236 265.807C366.132 263.532 368.407 258.223 368.787 257.085C369.166 255.947 372.958 252.155 375.612 249.501C377.736 247.377 381.301 243.56 382.817 241.916C383.955 240.779 386.23 238.276 386.23 237.366C386.23 236.228 383.197 234.711 382.438 233.574C381.68 232.436 381.68 231.298 381.68 229.782C381.68 228.265 380.921 228.644 380.542 227.886C380.163 227.127 380.542 225.989 380.921 225.61C381.301 225.231 382.817 225.231 383.955 225.989C385.093 226.748 385.472 228.644 386.23 229.023C386.837 229.327 388.506 228.897 389.264 228.644L391.539 227.127L394.573 223.335Z" fill="#EAC3B5"/>
  <path d="M319.489 477.787C322.219 478.393 323.913 479.051 324.419 479.304H331.624L339 477.787V472.098V456.5L344.5 440C345.457 438.193 349.254 427.768 350.264 425.38C350.291 425.747 350.362 425.697 350.5 425C350.547 424.763 350.456 424.927 350.264 425.38C350.173 424.136 350.584 418.111 350.584 416.354C350.584 414.534 350.079 411.804 350.584 410.666L353.239 406.115V395.5L351.722 387.913L349.068 382.984V379.571C344.391 379.697 334.127 379.874 330.486 379.571C326.846 379.267 323.155 377.422 321.764 376.537L302.424 374.641L292.186 378.054C290.795 380.582 287.863 386.093 287.256 387.913L287.256 387.913C286.497 390.189 281.568 404.978 278.534 416.354C277.144 418.377 274.363 424.287 274.363 425.5C274.363 427.017 272.467 431.523 272.467 433.798C272.467 435.618 271.708 441.635 271.329 444.416L267.158 448.587L261.5 457.688V464.5C264.028 465.638 271.936 471.795 274.363 472.098C277.396 472.478 282.326 473.236 290.29 474.374C296.66 475.284 301.54 473.236 303.183 472.098C303.183 471.34 304.5 469.292 304.5 467.169C304.5 464.514 305.742 462.618 306.5 457.688C307.107 453.745 307.607 448.714 308.492 446.691V467.169C308.492 468.306 308.113 471.34 308.492 472.098C308.795 472.705 310.135 473.868 310.767 474.374C312.537 475.259 316.759 477.18 319.489 477.787Z" fill="url(#paint2_linear_1736_350)"/>
  <path d="M334.658 376.537H323.281C319.11 375.905 309.629 374.565 305.079 374.262C300.528 373.958 294.84 375.652 292.565 376.537C292.818 374.767 293.551 370.697 294.461 368.573C295.599 365.919 300.528 357.576 301.287 354.163C301.894 351.433 304.068 346.2 305.079 343.925C304.194 342.787 302.045 339.298 300.528 334.444C299.011 329.59 299.896 324.332 300.528 322.309C299.138 321.045 295.978 317.986 294.461 315.863C292.565 313.208 291.427 304.107 290.29 298.798C289.379 294.551 288.141 286.916 287.635 283.63L284.601 279.838V264.669L290.29 277.183L292.565 279.838C293.323 277.31 295.144 271.723 296.357 269.599C297.57 267.475 298.494 259.16 299 256C300.609 258.536 304.68 266.565 306.5 269.599C308.775 273.391 308.113 272.633 310.767 274.908C312.891 276.728 314.938 278.953 315.697 279.838L322.523 283.63H334.657C339.334 283.124 349.143 282.189 350.964 282.492C352.784 282.796 353.253 278.517 353 277L356.5 273.5C357.638 274.258 360.823 277.714 362.34 279.838C364.236 282.492 365.374 287.043 366.511 290.835C367.421 293.869 367.902 295.891 368.028 296.523L366.511 302.59L362.34 307.52C363.225 313.967 364.919 327.467 364.615 329.894C364.236 332.927 363.857 346.2 363.857 347.717C363.857 349.234 362.719 351.888 362.34 354.163C362.037 355.984 357.41 363.77 355.135 367.436L351.722 378.433L348.309 379.571L334.658 376.537Z" fill="url(#paint3_linear_1736_350)"/>
  <path d="M344.896 240.4C345.806 240.703 347.298 242.801 347.93 243.812C347.93 243.054 347.702 240.93 346.792 238.503C345.882 236.077 345.149 234.964 344.896 234.711H347.93L342.621 232.815H344.896L339.966 230.54L342.621 228.265C340.978 228.897 337.312 230.237 335.795 230.54C334.278 230.843 332.635 229.908 332.003 229.402L335.795 225.61C333.773 226.874 329.121 229.402 326.694 229.402H321.006C319.489 229.402 314.559 230.161 308.492 232.815C303.638 234.939 301.919 239.515 301.666 241.537L296.357 247.984H298.253L297.495 253.293L299.77 251.397V255.947L303.183 264.669L304.7 266.565L307.354 271.495L309.629 274.149V270.357C309.882 268.461 310.843 264.366 312.663 263.152C314.483 261.939 315.444 262.647 315.697 263.152L319.11 264.669L322.523 262.015L324.419 258.602V260.119L326.694 255.947V251.397V246.088L328.59 247.984L329.728 244.571L332.003 248.742L334.278 243.812C335.416 242.675 338.146 240.172 339.966 239.262C342.242 238.124 343.759 240.02 344.896 240.4Z" fill="#2C150D"/>
  <path fill-rule="evenodd" clip-rule="evenodd" d="M409.308 643.539C552.289 614.16 630.228 447.278 583.389 270.798C536.551 94.3175 382.672 -24.9312 239.692 4.44809C96.7112 33.8274 18.7725 200.709 65.6108 377.19C112.449 553.67 266.328 672.919 409.308 643.539ZM404.281 590.534C529.157 564.875 597.227 419.124 556.319 264.991C515.412 110.857 381.018 6.70835 256.142 32.3675C131.267 58.0267 63.1968 203.777 104.104 357.911C145.012 512.044 279.405 616.193 404.281 590.534Z" fill="url(#paint4_linear_1736_350)"/>
  <path d="M1295 148.5L1276.92 117.113L1328.64 69.3207L1295 148.5Z" fill="#FBFBFB"/>
  <path d="M1266.5 137L1267.22 112.302L1328.64 69.3207L1277.28 116.792L1266.5 137Z" fill="#DB8162"/>
  <path d="M1267.22 112.302H1232L1329 69L1267.22 112.302Z" fill="#F3F3F3"/>
  <path d="M856.291 545.756L855.029 525.051L896.246 518.001L856.291 545.756Z" fill="#F7F7F7"/>
  <path d="M843.923 531.415L851.065 519.738L896.246 518.001L855.312 525.008L843.923 531.415Z" fill="#DB8162"/>
  <path d="M851.065 519.738L831.895 508.861L896.529 517.957L851.065 519.738Z" fill="#EEEEEE"/>
  <path d="M619.605 113.852L609.112 103.148L642.767 91.0804L619.605 113.852Z" fill="#F2F2F2"/>
  <path d="M602.063 108.762L603.166 101.138L642.767 91.0803L609.345 103.068L602.063 108.762Z" fill="#DB8162"/>
  <path d="M603.166 101.138L581.109 99.2575L643 91L603.166 101.138Z" fill="#F2F2F2"/>
  <path d="M497.179 431.632C555.575 419.994 696.779 383.776 794.428 332.017C916.489 267.319 951.261 216.334 955.505 194.53C959.749 172.727 945.517 150.606 925.145 154.323C904.773 158.04 893.608 172.559 897.528 194.041C902.283 220.105 930.395 249.793 962.096 264.9C1003.52 284.642 1061.29 280.374 1098.71 269.119C1136.12 257.865 1185.32 230.073 1208.03 204.901" stroke="#DEEFFF" stroke-opacity="0.62" stroke-width="3" stroke-dasharray="4 4"/>
  <defs>
    <linearGradient id="paint0_linear_1736_350" x1="183" y1="79" x2="275.5" y2="551" gradientUnits="userSpaceOnUse">
      <stop stop-color="#009A34"/>
      <stop offset="1" stop-color="#009A34" stop-opacity="0"/>
    </linearGradient>
    <linearGradient id="paint1_linear_1736_350" x1="11" y1="17.5" x2="298.298" y2="589.987" gradientUnits="userSpaceOnUse">
      <stop offset="0.0855758" stop-color="#FF7F52"/>
      <stop offset="1" stop-color="#FF7F52" stop-opacity="0"/>
    </linearGradient>
    <linearGradient id="paint2_linear_1736_350" x1="307.923" y1="374.641" x2="307.923" y2="479.304" gradientUnits="userSpaceOnUse">
      <stop stop-color="#FF7F52"/>
      <stop offset="1" stop-color="#FFAC8F"/>
    </linearGradient>
    <linearGradient id="paint3_linear_1736_350" x1="326.315" y1="257.464" x2="326.315" y2="379.571" gradientUnits="userSpaceOnUse">
      <stop stop-color="#046195"/>
      <stop offset="1" stop-color="#047A95"/>
    </linearGradient>
    <linearGradient id="paint4_linear_1736_350" x1="324.5" y1="0" x2="324.5" y2="647.987" gradientUnits="userSpaceOnUse">
      <stop stop-color="#6100FF"/>
      <stop offset="1" stop-color="#0085FF"/>
    </linearGradient>
  </defs>
</svg>
