<svg width="220" height="242" viewBox="0 0 220 242" fill="none" xmlns="http://www.w3.org/2000/svg">
  <ellipse rx="72.5047" ry="99.4036" transform="matrix(0.915917 -0.401368 0.393152 0.919473 105.489 120.517)" fill="url(#paint0_linear_1744_360)"/>
  <path fill-rule="evenodd" clip-rule="evenodd" d="M79.8794 61.2489C73.2128 57.432 64.9108 62.2452 64.9108 69.9271V142.444C64.9108 150.319 73.5909 155.104 80.2496 150.899L140.482 112.868C146.857 108.844 146.655 99.4805 140.112 95.7346L79.8794 61.2489ZM69.7996 69.5464V142.453C69.7996 146.395 74.1483 148.787 77.4773 146.676L137.772 108.44C140.948 106.426 140.847 101.758 137.586 99.8831L77.292 65.2119C73.9587 63.2951 69.7996 65.7012 69.7996 69.5464Z" fill="white"/>
  <path fill-rule="evenodd" clip-rule="evenodd" d="M114.351 40.3634C107.684 36.4961 99.3331 41.3061 99.3331 49.0133V171.746C99.3331 179.648 108.066 184.428 114.722 180.17L215.335 115.803C221.642 111.768 221.441 102.487 214.964 98.7298L114.351 40.3634ZM110.152 57.5061V162.188C110.152 166.14 114.52 168.53 117.848 166.399L203.568 111.499C206.719 109.481 206.618 104.844 203.382 102.965L117.663 53.1824C114.329 51.2466 110.152 53.6515 110.152 57.5061Z" fill="url(#paint1_linear_1744_360)"/>
  <defs>
    <linearGradient id="paint0_linear_1744_360" x1="125.433" y1="163.022" x2="-0.244666" y2="79.4115" gradientUnits="userSpaceOnUse">
      <stop stop-color="#0480FF"/>
      <stop offset="1" stop-color="#2F45FF"/>
    </linearGradient>
    <linearGradient id="paint1_linear_1744_360" x1="159.639" y1="38.9984" x2="49.2153" y2="181.019" gradientUnits="userSpaceOnUse">
      <stop offset="0.13258" stop-color="#00F4FF"/>
      <stop offset="0.614583" stop-color="white"/>
    </linearGradient>
  </defs>
</svg>
